<mxfile host="app.diagrams.net" agent="Mozilla/5.0 (Windows NT 10.0; Win64; x64) AppleWebKit/537.36 (KHTML, like Gecko) Chrome/140.0.0.0 Safari/537.36" version="28.2.3">
  <diagram name="Page-1" id="WnKnijzjekA-ogBVbg_F">
    <mxGraphModel dx="1042" dy="1674" grid="1" gridSize="10" guides="1" tooltips="1" connect="1" arrows="1" fold="1" page="1" pageScale="1" pageWidth="850" pageHeight="1100" math="0" shadow="0">
      <root>
        <mxCell id="0" />
        <mxCell id="1" parent="0" />
        <mxCell id="7UuzC6sXoYc_6NqhGD3_-1" value="Public Key&lt;div&gt;Secret Key&lt;/div&gt;&lt;div&gt;Random Seed(s)&lt;/div&gt;" style="rounded=0;whiteSpace=wrap;html=1;" parent="1" vertex="1">
          <mxGeometry x="100" y="40" width="120" height="60" as="geometry" />
        </mxCell>
        <mxCell id="7UuzC6sXoYc_6NqhGD3_-3" value="GPU&amp;nbsp;Processing (CUDA)" style="swimlane;childLayout=stackLayout;horizontal=1;startSize=20;horizontalStack=0;rounded=1;fontSize=14;fontStyle=0;strokeWidth=2;resizeParent=0;resizeLast=1;shadow=0;dashed=0;align=center;arcSize=4;whiteSpace=wrap;html=1;" parent="1" vertex="1">
          <mxGeometry x="290" y="40" width="220" height="290" as="geometry" />
        </mxCell>
        <mxCell id="7UuzC6sXoYc_6NqhGD3_-4" value="&lt;div style=&quot;text-align: justify;&quot;&gt;&lt;span style=&quot;background-color: transparent; color: light-dark(rgb(0, 0, 0), rgb(255, 255, 255));&quot;&gt;&lt;font style=&quot;font-size: 13px;&quot;&gt;[Encapsulation Kernels]&lt;/font&gt;&lt;/span&gt;&lt;/div&gt;&lt;div style=&quot;text-align: justify;&quot;&gt;&lt;font style=&quot;font-size: 13px;&quot;&gt;load_gf_kernel&lt;/font&gt;&lt;/div&gt;&lt;div style=&quot;text-align: justify;&quot;&gt;&lt;font style=&quot;font-size: 13px;&quot;&gt;filter_valid_indices&lt;/font&gt;&lt;/div&gt;&lt;div style=&quot;text-align: justify;&quot;&gt;&lt;font style=&quot;font-size: 13px;&quot;&gt;bitonic_sort_kernel&lt;/font&gt;&lt;/div&gt;&lt;div style=&quot;text-align: justify;&quot;&gt;&lt;font style=&quot;font-size: 13px;&quot;&gt;check_duplicates&lt;/font&gt;&lt;/div&gt;&lt;div style=&quot;text-align: justify;&quot;&gt;&lt;font style=&quot;font-size: 13px;&quot;&gt;compute_val&amp;nbsp;&lt;/font&gt;&lt;/div&gt;&lt;div style=&quot;text-align: justify;&quot;&gt;&lt;font style=&quot;font-size: 13px;&quot;&gt;set_bits&lt;/font&gt;&lt;/div&gt;&lt;div style=&quot;text-align: justify;&quot;&gt;&lt;font style=&quot;font-size: 13px;&quot;&gt;&lt;br&gt;&lt;/font&gt;&lt;/div&gt;&lt;div style=&quot;text-align: justify;&quot;&gt;&lt;font style=&quot;font-size: 13px;&quot;&gt;[Decrypt Kernels]&lt;/font&gt;&lt;/div&gt;&lt;div style=&quot;text-align: justify;&quot;&gt;&lt;font style=&quot;font-size: 13px;&quot;&gt;k_preprocess -&amp;gt; k_benes&lt;/font&gt;&lt;/div&gt;&lt;div style=&quot;text-align: justify;&quot;&gt;&lt;font style=&quot;font-size: 13px;&quot;&gt;k_fft -&amp;gt; k_sq_rows -&amp;gt; k_build_inv&lt;/font&gt;&lt;/div&gt;&lt;div style=&quot;text-align: justify;&quot;&gt;&lt;font style=&quot;font-size: 13px;&quot;&gt;k_and_scale -&amp;gt; k_fft_tr&lt;/font&gt;&lt;/div&gt;&lt;div style=&quot;text-align: justify;&quot;&gt;&lt;font style=&quot;font-size: 13px;&quot;&gt;CPU bm -&amp;gt; k_form_error&lt;/font&gt;&lt;/div&gt;&lt;div style=&quot;text-align: justify;&quot;&gt;&lt;font style=&quot;font-size: 13px;&quot;&gt;k_synd_cmp&lt;/font&gt;&lt;/div&gt;&lt;div style=&quot;text-align: justify;&quot;&gt;&lt;font style=&quot;font-size: 13px;&quot;&gt;k_postprocess&lt;/font&gt;&lt;/div&gt;&lt;div style=&quot;text-align: justify;&quot;&gt;&lt;font style=&quot;font-size: 13px;&quot;&gt;k_weight_check&lt;/font&gt;&lt;/div&gt;" style="align=center;strokeColor=none;fillColor=none;spacingLeft=4;spacingRight=4;fontSize=12;verticalAlign=top;resizable=0;rotatable=0;part=1;html=1;whiteSpace=wrap;" parent="7UuzC6sXoYc_6NqhGD3_-3" vertex="1">
          <mxGeometry y="20" width="220" height="270" as="geometry" />
        </mxCell>
        <mxCell id="7UuzC6sXoYc_6NqhGD3_-6" value="CPU KDF (SHAKE256)&lt;div&gt;Compare ss_enc/ss_dec&lt;/div&gt;&lt;div&gt;Log CSV (benchmarks)&lt;/div&gt;" style="rounded=0;whiteSpace=wrap;html=1;" parent="1" vertex="1">
          <mxGeometry x="327.5" y="370" width="145" height="80" as="geometry" />
        </mxCell>
        <mxCell id="7UuzC6sXoYc_6NqhGD3_-7" value="Ciphertext (c)&lt;div&gt;Error Vector (e)&lt;/div&gt;" style="rounded=0;whiteSpace=wrap;html=1;" parent="1" vertex="1">
          <mxGeometry x="590" y="40" width="120" height="60" as="geometry" />
        </mxCell>
        <mxCell id="7UuzC6sXoYc_6NqhGD3_-8" style="edgeStyle=orthogonalEdgeStyle;rounded=0;orthogonalLoop=1;jettySize=auto;html=1;exitX=1;exitY=0.5;exitDx=0;exitDy=0;entryX=0;entryY=0.037;entryDx=0;entryDy=0;entryPerimeter=0;" parent="1" source="7UuzC6sXoYc_6NqhGD3_-1" target="7UuzC6sXoYc_6NqhGD3_-4" edge="1">
          <mxGeometry relative="1" as="geometry" />
        </mxCell>
        <mxCell id="7UuzC6sXoYc_6NqhGD3_-11" style="edgeStyle=orthogonalEdgeStyle;rounded=0;orthogonalLoop=1;jettySize=auto;html=1;exitX=0.5;exitY=1;exitDx=0;exitDy=0;entryX=0.5;entryY=0;entryDx=0;entryDy=0;" parent="1" source="7UuzC6sXoYc_6NqhGD3_-4" target="7UuzC6sXoYc_6NqhGD3_-6" edge="1">
          <mxGeometry relative="1" as="geometry" />
        </mxCell>
        <mxCell id="7UuzC6sXoYc_6NqhGD3_-12" style="edgeStyle=orthogonalEdgeStyle;rounded=0;orthogonalLoop=1;jettySize=auto;html=1;exitX=1;exitY=0.035;exitDx=0;exitDy=0;entryX=0;entryY=0.5;entryDx=0;entryDy=0;exitPerimeter=0;" parent="1" source="7UuzC6sXoYc_6NqhGD3_-4" target="7UuzC6sXoYc_6NqhGD3_-7" edge="1">
          <mxGeometry relative="1" as="geometry" />
        </mxCell>
        <mxCell id="7UuzC6sXoYc_6NqhGD3_-13" value="System Design Diagram" style="text;html=1;align=center;verticalAlign=middle;whiteSpace=wrap;rounded=0;fontSize=16;" parent="1" vertex="1">
          <mxGeometry x="300" y="-34" width="180" height="23" as="geometry" />
        </mxCell>
        <mxCell id="7UuzC6sXoYc_6NqhGD3_-14" value="System Architecture Diagram" style="text;html=1;align=center;verticalAlign=middle;whiteSpace=wrap;rounded=0;fontSize=16;" parent="1" vertex="1">
          <mxGeometry x="1060" y="-35" width="250" height="24" as="geometry" />
        </mxCell>
        <mxCell id="7UuzC6sXoYc_6NqhGD3_-15" value="HOST (CPU)" style="swimlane;childLayout=stackLayout;horizontal=1;startSize=20;horizontalStack=0;rounded=1;fontSize=14;fontStyle=0;strokeWidth=2;resizeParent=0;resizeLast=1;shadow=0;dashed=0;align=center;arcSize=4;whiteSpace=wrap;html=1;" parent="1" vertex="1">
          <mxGeometry x="920" y="40" width="160" height="210" as="geometry" />
        </mxCell>
        <mxCell id="7UuzC6sXoYc_6NqhGD3_-16" value="&lt;div style=&quot;text-align: justify;&quot;&gt;&lt;span style=&quot;font-size: 13px;&quot;&gt;RNG / randombytes&lt;/span&gt;&lt;/div&gt;&lt;div style=&quot;text-align: justify;&quot;&gt;&lt;span style=&quot;font-size: 13px;&quot;&gt;Load pk, sk&lt;/span&gt;&lt;/div&gt;&lt;div style=&quot;text-align: justify;&quot;&gt;&lt;span style=&quot;font-size: 13px;&quot;&gt;crypto_kem_enc_new&lt;/span&gt;&lt;/div&gt;&lt;div style=&quot;text-align: justify;&quot;&gt;&lt;span style=&quot;font-size: 13px;&quot;&gt;crypto_kem_dec&lt;/span&gt;&lt;/div&gt;&lt;div style=&quot;text-align: justify;&quot;&gt;&lt;span style=&quot;font-size: 13px;&quot;&gt;&lt;br&gt;&lt;/span&gt;&lt;/div&gt;&lt;div style=&quot;text-align: justify;&quot;&gt;&lt;span style=&quot;font-size: 13px;&quot;&gt;&lt;br&gt;&lt;/span&gt;&lt;/div&gt;&lt;div style=&quot;text-align: justify;&quot;&gt;&lt;span style=&quot;font-size: 13px;&quot;&gt;&lt;br&gt;&lt;/span&gt;&lt;/div&gt;&lt;div style=&quot;text-align: justify;&quot;&gt;&lt;span style=&quot;font-size: 13px;&quot;&gt;SHAKE256 (KDF)&lt;/span&gt;&lt;/div&gt;&lt;div style=&quot;text-align: justify;&quot;&gt;&lt;span style=&quot;font-size: 13px;&quot;&gt;CPU bm(decrypt)&lt;/span&gt;&lt;/div&gt;&lt;div style=&quot;text-align: justify;&quot;&gt;&lt;span style=&quot;font-size: 13px;&quot;&gt;CSV Logger&lt;/span&gt;&lt;/div&gt;&lt;div style=&quot;text-align: justify;&quot;&gt;&lt;span style=&quot;font-size: 13px;&quot;&gt;Benchmark Loops&lt;/span&gt;&lt;/div&gt;" style="align=center;strokeColor=none;fillColor=none;spacingLeft=4;spacingRight=4;fontSize=12;verticalAlign=top;resizable=0;rotatable=0;part=1;html=1;whiteSpace=wrap;" parent="7UuzC6sXoYc_6NqhGD3_-15" vertex="1">
          <mxGeometry y="20" width="160" height="270" as="geometry" />
        </mxCell>
        <mxCell id="7UuzC6sXoYc_6NqhGD3_-19" value="&lt;div style=&quot;text-align: justify;&quot;&gt;&lt;br&gt;&lt;/div&gt;" style="align=center;strokeColor=none;fillColor=none;spacingLeft=4;spacingRight=4;fontSize=12;verticalAlign=top;resizable=0;rotatable=0;part=1;html=1;whiteSpace=wrap;" parent="7UuzC6sXoYc_6NqhGD3_-15" vertex="1">
          <mxGeometry y="290" width="160" height="-80" as="geometry" />
        </mxCell>
        <mxCell id="7UuzC6sXoYc_6NqhGD3_-21" value="DEVICE (GPU)" style="swimlane;childLayout=stackLayout;horizontal=1;startSize=20;horizontalStack=0;rounded=1;fontSize=14;fontStyle=0;strokeWidth=2;resizeParent=0;resizeLast=1;shadow=0;dashed=0;align=center;arcSize=4;whiteSpace=wrap;html=1;" parent="1" vertex="1">
          <mxGeometry x="1230" y="40" width="240" height="290" as="geometry" />
        </mxCell>
        <mxCell id="7UuzC6sXoYc_6NqhGD3_-22" value="&lt;div style=&quot;&quot;&gt;&lt;span style=&quot;font-size: 13px;&quot;&gt;Encryption Module:&lt;/span&gt;&lt;/div&gt;&lt;div style=&quot;&quot;&gt;&lt;span style=&quot;background-color: transparent; font-size: 13px;&quot;&gt;&lt;span style=&quot;white-space: pre;&quot;&gt;&#x9;&lt;/span&gt;load_gf_kernel&lt;/span&gt;&lt;/div&gt;&lt;div style=&quot;&quot;&gt;&lt;span style=&quot;background-color: transparent; font-size: 13px;&quot;&gt;&lt;span style=&quot;white-space: pre;&quot;&gt;&#x9;&lt;/span&gt;&lt;/span&gt;&lt;span style=&quot;background-color: transparent; font-size: 13px;&quot;&gt;filter_valid_indices&lt;/span&gt;&lt;/div&gt;&lt;div style=&quot;&quot;&gt;&lt;span style=&quot;background-color: transparent;&quot;&gt;&lt;span style=&quot;font-size: 13px;&quot;&gt;&lt;span style=&quot;white-space: pre;&quot;&gt;&#x9;&lt;/span&gt;bitonic_sort_kernel&lt;/span&gt;&lt;/span&gt;&lt;/div&gt;&lt;div style=&quot;&quot;&gt;&lt;span style=&quot;background-color: transparent;&quot;&gt;&lt;span style=&quot;font-size: 13px;&quot;&gt;&lt;span style=&quot;white-space: pre;&quot;&gt;&#x9;&lt;/span&gt;check_duplicates&lt;br&gt;&lt;/span&gt;&lt;/span&gt;&lt;/div&gt;&lt;div style=&quot;&quot;&gt;&lt;span style=&quot;background-color: transparent;&quot;&gt;&lt;span style=&quot;font-size: 13px;&quot;&gt;&lt;span style=&quot;white-space: pre;&quot;&gt;&#x9;&lt;/span&gt;compute_val&lt;br&gt;&lt;/span&gt;&lt;/span&gt;&lt;/div&gt;&lt;div style=&quot;&quot;&gt;&lt;span style=&quot;background-color: transparent;&quot;&gt;&lt;span style=&quot;font-size: 13px;&quot;&gt;&lt;span style=&quot;white-space: pre;&quot;&gt;&#x9;&lt;/span&gt;set_bits&lt;br&gt;&lt;/span&gt;&lt;/span&gt;&lt;/div&gt;&lt;div style=&quot;&quot;&gt;&lt;span style=&quot;background-color: transparent;&quot;&gt;&lt;span style=&quot;font-size: 13px;&quot;&gt;&lt;span style=&quot;white-space: pre;&quot;&gt;&#x9;&lt;/span&gt;syndrome_kernel_vecstyle&lt;br&gt;&lt;/span&gt;&lt;/span&gt;&lt;/div&gt;&lt;div style=&quot;&quot;&gt;&lt;span style=&quot;background-color: transparent;&quot;&gt;&lt;span style=&quot;font-size: 13px;&quot;&gt;&lt;br&gt;&lt;/span&gt;&lt;/span&gt;&lt;/div&gt;&lt;div style=&quot;&quot;&gt;&lt;span style=&quot;background-color: transparent;&quot;&gt;&lt;span style=&quot;font-size: 13px;&quot;&gt;Decryption Module:&lt;/span&gt;&lt;/span&gt;&lt;/div&gt;&lt;div style=&quot;&quot;&gt;&lt;span style=&quot;background-color: transparent;&quot;&gt;&lt;span style=&quot;font-size: 13px;&quot;&gt;&lt;span style=&quot;white-space: pre;&quot;&gt;&#x9;&lt;/span&gt;k_preprocess&lt;br&gt;&lt;/span&gt;&lt;/span&gt;&lt;/div&gt;&lt;div style=&quot;&quot;&gt;&lt;span style=&quot;background-color: transparent;&quot;&gt;&lt;span style=&quot;font-size: 13px;&quot;&gt;&lt;span style=&quot;white-space: pre;&quot;&gt;&#x9;&lt;/span&gt;k_benes&lt;br&gt;&lt;/span&gt;&lt;/span&gt;&lt;/div&gt;&lt;div style=&quot;&quot;&gt;&lt;span style=&quot;background-color: transparent;&quot;&gt;&lt;span style=&quot;font-size: 13px;&quot;&gt;&lt;span style=&quot;white-space: pre;&quot;&gt;&#x9;&lt;/span&gt;k_fft, k_sq_rows, k_build_inv&lt;br&gt;&lt;/span&gt;&lt;/span&gt;&lt;/div&gt;&lt;div style=&quot;&quot;&gt;&lt;span style=&quot;background-color: transparent;&quot;&gt;&lt;span style=&quot;font-size: 13px;&quot;&gt;&lt;span style=&quot;white-space: pre;&quot;&gt;&#x9;&lt;/span&gt;k_and_scale,&amp;nbsp;&lt;/span&gt;&lt;/span&gt;&lt;span style=&quot;font-size: 13px; background-color: transparent; color: light-dark(rgb(0, 0, 0), rgb(255, 255, 255));&quot;&gt;k_fft_tr&lt;/span&gt;&lt;/div&gt;&lt;div style=&quot;&quot;&gt;&lt;span style=&quot;background-color: transparent;&quot;&gt;&lt;span style=&quot;font-size: 13px;&quot;&gt;&lt;span style=&quot;white-space: pre;&quot;&gt;&#x9;&lt;/span&gt;k_form_error, k_synd_cmp&lt;br&gt;&lt;/span&gt;&lt;/span&gt;&lt;/div&gt;&lt;div style=&quot;&quot;&gt;&lt;span style=&quot;background-color: transparent;&quot;&gt;&lt;span style=&quot;font-size: 13px;&quot;&gt;&lt;span style=&quot;white-space: pre;&quot;&gt;&#x9;&lt;/span&gt;k_postprocess, k_weight_check&lt;br&gt;&lt;/span&gt;&lt;/span&gt;&lt;/div&gt;&lt;div style=&quot;&quot;&gt;&lt;span style=&quot;background-color: transparent;&quot;&gt;&lt;span style=&quot;font-size: 13px;&quot;&gt;&lt;span style=&quot;white-space: pre;&quot;&gt;&#x9;&lt;/span&gt;&lt;br&gt;&lt;/span&gt;&lt;/span&gt;&lt;/div&gt;&lt;div style=&quot;&quot;&gt;&lt;span style=&quot;font-size: 13px;&quot;&gt;&lt;br&gt;&lt;/span&gt;&lt;/div&gt;" style="align=left;strokeColor=none;fillColor=none;spacingLeft=4;spacingRight=4;fontSize=12;verticalAlign=top;resizable=0;rotatable=0;part=1;html=1;whiteSpace=wrap;" parent="7UuzC6sXoYc_6NqhGD3_-21" vertex="1">
          <mxGeometry y="20" width="240" height="270" as="geometry" />
        </mxCell>
        <mxCell id="7UuzC6sXoYc_6NqhGD3_-23" value="&lt;div style=&quot;text-align: justify;&quot;&gt;&lt;br&gt;&lt;/div&gt;" style="align=center;strokeColor=none;fillColor=none;spacingLeft=4;spacingRight=4;fontSize=12;verticalAlign=top;resizable=0;rotatable=0;part=1;html=1;whiteSpace=wrap;" parent="7UuzC6sXoYc_6NqhGD3_-21" vertex="1">
          <mxGeometry y="290" width="240" as="geometry" />
        </mxCell>
        <mxCell id="7UuzC6sXoYc_6NqhGD3_-24" value="" style="endArrow=classic;html=1;rounded=0;exitX=1.017;exitY=0.147;exitDx=0;exitDy=0;exitPerimeter=0;entryX=-0.013;entryY=0.15;entryDx=0;entryDy=0;entryPerimeter=0;" parent="1" source="7UuzC6sXoYc_6NqhGD3_-16" target="7UuzC6sXoYc_6NqhGD3_-22" edge="1">
          <mxGeometry relative="1" as="geometry">
            <mxPoint x="1100" y="100" as="sourcePoint" />
            <mxPoint x="1200" y="100" as="targetPoint" />
          </mxGeometry>
        </mxCell>
        <mxCell id="7UuzC6sXoYc_6NqhGD3_-25" value="H2D pk, sk" style="edgeLabel;resizable=0;html=1;;align=center;verticalAlign=middle;" parent="7UuzC6sXoYc_6NqhGD3_-24" connectable="0" vertex="1">
          <mxGeometry relative="1" as="geometry" />
        </mxCell>
        <mxCell id="7UuzC6sXoYc_6NqhGD3_-27" value="" style="endArrow=classic;html=1;rounded=0;entryX=0.992;entryY=0.464;entryDx=0;entryDy=0;entryPerimeter=0;" parent="1" target="7UuzC6sXoYc_6NqhGD3_-16" edge="1">
          <mxGeometry relative="1" as="geometry">
            <mxPoint x="1230" y="185" as="sourcePoint" />
            <mxPoint x="1086" y="184.5" as="targetPoint" />
          </mxGeometry>
        </mxCell>
        <mxCell id="7UuzC6sXoYc_6NqhGD3_-28" value="D2H e, c" style="edgeLabel;resizable=0;html=1;;align=center;verticalAlign=middle;" parent="7UuzC6sXoYc_6NqhGD3_-27" connectable="0" vertex="1">
          <mxGeometry relative="1" as="geometry" />
        </mxCell>
        <mxCell id="7UuzC6sXoYc_6NqhGD3_-29" value="Activity Diagram" style="text;html=1;align=center;verticalAlign=middle;whiteSpace=wrap;rounded=0;fontSize=16;" parent="1" vertex="1">
          <mxGeometry x="275" y="590" width="250" height="24" as="geometry" />
        </mxCell>
        <mxCell id="7UuzC6sXoYc_6NqhGD3_-53" value="" style="edgeStyle=orthogonalEdgeStyle;rounded=0;orthogonalLoop=1;jettySize=auto;html=1;" parent="1" source="7UuzC6sXoYc_6NqhGD3_-30" target="7UuzC6sXoYc_6NqhGD3_-32" edge="1">
          <mxGeometry relative="1" as="geometry" />
        </mxCell>
        <mxCell id="7UuzC6sXoYc_6NqhGD3_-30" value="Start" style="ellipse;whiteSpace=wrap;html=1;" parent="1" vertex="1">
          <mxGeometry x="372.5" y="630" width="55" height="40" as="geometry" />
        </mxCell>
        <mxCell id="7UuzC6sXoYc_6NqhGD3_-31" value="Load pk, sk from keys.cuh" style="shape=parallelogram;perimeter=parallelogramPerimeter;whiteSpace=wrap;html=1;fixedSize=1;" parent="1" vertex="1">
          <mxGeometry x="330" y="690" width="140" height="50" as="geometry" />
        </mxCell>
        <mxCell id="7UuzC6sXoYc_6NqhGD3_-57" style="edgeStyle=orthogonalEdgeStyle;rounded=0;orthogonalLoop=1;jettySize=auto;html=1;exitX=0.5;exitY=1;exitDx=0;exitDy=0;entryX=0.5;entryY=0;entryDx=0;entryDy=0;" parent="1" source="7UuzC6sXoYc_6NqhGD3_-32" target="7UuzC6sXoYc_6NqhGD3_-34" edge="1">
          <mxGeometry relative="1" as="geometry" />
        </mxCell>
        <mxCell id="7UuzC6sXoYc_6NqhGD3_-32" value="[GPU Encapsulation]" style="rounded=0;whiteSpace=wrap;html=1;" parent="1" vertex="1">
          <mxGeometry x="340" y="760" width="120" height="40" as="geometry" />
        </mxCell>
        <mxCell id="7UuzC6sXoYc_6NqhGD3_-33" value="produce c, e" style="shape=parallelogram;perimeter=parallelogramPerimeter;whiteSpace=wrap;html=1;fixedSize=1;" parent="1" vertex="1">
          <mxGeometry x="510" y="755" width="120" height="50" as="geometry" />
        </mxCell>
        <mxCell id="7UuzC6sXoYc_6NqhGD3_-58" style="edgeStyle=orthogonalEdgeStyle;rounded=0;orthogonalLoop=1;jettySize=auto;html=1;exitX=0.5;exitY=1;exitDx=0;exitDy=0;entryX=0.5;entryY=0;entryDx=0;entryDy=0;" parent="1" source="7UuzC6sXoYc_6NqhGD3_-34" target="7UuzC6sXoYc_6NqhGD3_-36" edge="1">
          <mxGeometry relative="1" as="geometry" />
        </mxCell>
        <mxCell id="7UuzC6sXoYc_6NqhGD3_-34" value="CPU KDF (SHAKE256)" style="rounded=0;whiteSpace=wrap;html=1;" parent="1" vertex="1">
          <mxGeometry x="340" y="820" width="120" height="40" as="geometry" />
        </mxCell>
        <mxCell id="7UuzC6sXoYc_6NqhGD3_-35" value="ss_enc" style="shape=parallelogram;perimeter=parallelogramPerimeter;whiteSpace=wrap;html=1;fixedSize=1;" parent="1" vertex="1">
          <mxGeometry x="510" y="815" width="120" height="50" as="geometry" />
        </mxCell>
        <mxCell id="7UuzC6sXoYc_6NqhGD3_-59" style="edgeStyle=orthogonalEdgeStyle;rounded=0;orthogonalLoop=1;jettySize=auto;html=1;exitX=0.5;exitY=1;exitDx=0;exitDy=0;entryX=0.5;entryY=0;entryDx=0;entryDy=0;" parent="1" source="7UuzC6sXoYc_6NqhGD3_-36" target="7UuzC6sXoYc_6NqhGD3_-38" edge="1">
          <mxGeometry relative="1" as="geometry" />
        </mxCell>
        <mxCell id="7UuzC6sXoYc_6NqhGD3_-36" value="[GPU Decryption]" style="rounded=0;whiteSpace=wrap;html=1;" parent="1" vertex="1">
          <mxGeometry x="340" y="880" width="120" height="40" as="geometry" />
        </mxCell>
        <mxCell id="7UuzC6sXoYc_6NqhGD3_-37" value="k_preprocess ... k_fft_tr" style="rounded=0;whiteSpace=wrap;html=1;" parent="1" vertex="1">
          <mxGeometry x="510" y="880" width="150" height="40" as="geometry" />
        </mxCell>
        <mxCell id="7UuzC6sXoYc_6NqhGD3_-60" style="edgeStyle=orthogonalEdgeStyle;rounded=0;orthogonalLoop=1;jettySize=auto;html=1;exitX=0.5;exitY=1;exitDx=0;exitDy=0;entryX=0.5;entryY=0;entryDx=0;entryDy=0;" parent="1" source="7UuzC6sXoYc_6NqhGD3_-38" target="7UuzC6sXoYc_6NqhGD3_-41" edge="1">
          <mxGeometry relative="1" as="geometry" />
        </mxCell>
        <mxCell id="7UuzC6sXoYc_6NqhGD3_-38" value="CPU bm(...)" style="rounded=0;whiteSpace=wrap;html=1;" parent="1" vertex="1">
          <mxGeometry x="340" y="940" width="120" height="40" as="geometry" />
        </mxCell>
        <mxCell id="7UuzC6sXoYc_6NqhGD3_-39" value="locator polynomial" style="rounded=0;whiteSpace=wrap;html=1;" parent="1" vertex="1">
          <mxGeometry x="510" y="940" width="110" height="40" as="geometry" />
        </mxCell>
        <mxCell id="7UuzC6sXoYc_6NqhGD3_-40" value="back to GPU for root finding" style="rounded=0;whiteSpace=wrap;html=1;" parent="1" vertex="1">
          <mxGeometry x="660" y="940" width="110" height="40" as="geometry" />
        </mxCell>
        <mxCell id="7UuzC6sXoYc_6NqhGD3_-61" style="edgeStyle=orthogonalEdgeStyle;rounded=0;orthogonalLoop=1;jettySize=auto;html=1;exitX=0.5;exitY=1;exitDx=0;exitDy=0;entryX=0.5;entryY=0;entryDx=0;entryDy=0;" parent="1" source="7UuzC6sXoYc_6NqhGD3_-41" target="7UuzC6sXoYc_6NqhGD3_-45" edge="1">
          <mxGeometry relative="1" as="geometry" />
        </mxCell>
        <mxCell id="7UuzC6sXoYc_6NqhGD3_-41" value="[GPU Decryption]" style="rounded=0;whiteSpace=wrap;html=1;" parent="1" vertex="1">
          <mxGeometry x="340" y="1000" width="120" height="40" as="geometry" />
        </mxCell>
        <mxCell id="7UuzC6sXoYc_6NqhGD3_-43" value="k_fft ... k_weight_check" style="rounded=0;whiteSpace=wrap;html=1;" parent="1" vertex="1">
          <mxGeometry x="510" y="1000" width="150" height="40" as="geometry" />
        </mxCell>
        <mxCell id="7UuzC6sXoYc_6NqhGD3_-63" style="edgeStyle=orthogonalEdgeStyle;rounded=0;orthogonalLoop=1;jettySize=auto;html=1;exitX=0.5;exitY=1;exitDx=0;exitDy=0;entryX=0.5;entryY=0;entryDx=0;entryDy=0;" parent="1" source="7UuzC6sXoYc_6NqhGD3_-44" target="7UuzC6sXoYc_6NqhGD3_-46" edge="1">
          <mxGeometry relative="1" as="geometry" />
        </mxCell>
        <mxCell id="7UuzC6sXoYc_6NqhGD3_-64" style="edgeStyle=orthogonalEdgeStyle;rounded=0;orthogonalLoop=1;jettySize=auto;html=1;exitX=1;exitY=0.5;exitDx=0;exitDy=0;entryX=0;entryY=0.5;entryDx=0;entryDy=0;" parent="1" source="7UuzC6sXoYc_6NqhGD3_-44" target="7UuzC6sXoYc_6NqhGD3_-47" edge="1">
          <mxGeometry relative="1" as="geometry" />
        </mxCell>
        <mxCell id="7UuzC6sXoYc_6NqhGD3_-44" value="Decryption Success?" style="rhombus;whiteSpace=wrap;html=1;" parent="1" vertex="1">
          <mxGeometry x="360" y="1120" width="80" height="80" as="geometry" />
        </mxCell>
        <mxCell id="7UuzC6sXoYc_6NqhGD3_-62" style="edgeStyle=orthogonalEdgeStyle;rounded=0;orthogonalLoop=1;jettySize=auto;html=1;exitX=0.5;exitY=1;exitDx=0;exitDy=0;entryX=0.5;entryY=0;entryDx=0;entryDy=0;" parent="1" source="7UuzC6sXoYc_6NqhGD3_-45" target="7UuzC6sXoYc_6NqhGD3_-44" edge="1">
          <mxGeometry relative="1" as="geometry" />
        </mxCell>
        <mxCell id="7UuzC6sXoYc_6NqhGD3_-45" value="check_weight &amp;amp; check_synd" style="rounded=0;whiteSpace=wrap;html=1;" parent="1" vertex="1">
          <mxGeometry x="340" y="1060" width="120" height="40" as="geometry" />
        </mxCell>
        <mxCell id="7UuzC6sXoYc_6NqhGD3_-65" style="edgeStyle=orthogonalEdgeStyle;rounded=0;orthogonalLoop=1;jettySize=auto;html=1;exitX=0.5;exitY=1;exitDx=0;exitDy=0;entryX=0.5;entryY=0;entryDx=0;entryDy=0;" parent="1" source="7UuzC6sXoYc_6NqhGD3_-46" target="7UuzC6sXoYc_6NqhGD3_-48" edge="1">
          <mxGeometry relative="1" as="geometry" />
        </mxCell>
        <mxCell id="7UuzC6sXoYc_6NqhGD3_-46" value="ss_dec = SHAKE256(1||e&#39;||c)" style="rounded=0;whiteSpace=wrap;html=1;" parent="1" vertex="1">
          <mxGeometry x="340" y="1220" width="120" height="40" as="geometry" />
        </mxCell>
        <mxCell id="7UuzC6sXoYc_6NqhGD3_-47" value="ss_dec = SHAKE256(0||s||c)" style="rounded=0;whiteSpace=wrap;html=1;" parent="1" vertex="1">
          <mxGeometry x="510" y="1140" width="120" height="40" as="geometry" />
        </mxCell>
        <mxCell id="7UuzC6sXoYc_6NqhGD3_-66" style="edgeStyle=orthogonalEdgeStyle;rounded=0;orthogonalLoop=1;jettySize=auto;html=1;exitX=0.5;exitY=1;exitDx=0;exitDy=0;entryX=0.5;entryY=0;entryDx=0;entryDy=0;" parent="1" source="7UuzC6sXoYc_6NqhGD3_-48" target="7UuzC6sXoYc_6NqhGD3_-49" edge="1">
          <mxGeometry relative="1" as="geometry" />
        </mxCell>
        <mxCell id="7UuzC6sXoYc_6NqhGD3_-48" value="Compare ss_enc vs ss_dec" style="rounded=0;whiteSpace=wrap;html=1;" parent="1" vertex="1">
          <mxGeometry x="340" y="1280" width="120" height="40" as="geometry" />
        </mxCell>
        <mxCell id="7UuzC6sXoYc_6NqhGD3_-67" style="edgeStyle=orthogonalEdgeStyle;rounded=0;orthogonalLoop=1;jettySize=auto;html=1;exitX=0.5;exitY=1;exitDx=0;exitDy=0;entryX=0.5;entryY=0;entryDx=0;entryDy=0;" parent="1" source="7UuzC6sXoYc_6NqhGD3_-49" target="7UuzC6sXoYc_6NqhGD3_-50" edge="1">
          <mxGeometry relative="1" as="geometry" />
        </mxCell>
        <mxCell id="7UuzC6sXoYc_6NqhGD3_-49" value="Log result (success/fail), write CSV" style="rounded=0;whiteSpace=wrap;html=1;" parent="1" vertex="1">
          <mxGeometry x="320" y="1340" width="160" height="40" as="geometry" />
        </mxCell>
        <mxCell id="7UuzC6sXoYc_6NqhGD3_-68" style="edgeStyle=orthogonalEdgeStyle;rounded=0;orthogonalLoop=1;jettySize=auto;html=1;exitX=0.5;exitY=1;exitDx=0;exitDy=0;entryX=0.5;entryY=0;entryDx=0;entryDy=0;" parent="1" source="7UuzC6sXoYc_6NqhGD3_-50" target="7UuzC6sXoYc_6NqhGD3_-51" edge="1">
          <mxGeometry relative="1" as="geometry" />
        </mxCell>
        <mxCell id="7UuzC6sXoYc_6NqhGD3_-50" value="If benchmark mode: loop num_blocks × trials" style="rounded=0;whiteSpace=wrap;html=1;" parent="1" vertex="1">
          <mxGeometry x="320" y="1400" width="160" height="40" as="geometry" />
        </mxCell>
        <mxCell id="7UuzC6sXoYc_6NqhGD3_-51" value="End" style="ellipse;whiteSpace=wrap;html=1;" parent="1" vertex="1">
          <mxGeometry x="372.5" y="1460" width="55" height="40" as="geometry" />
        </mxCell>
        <mxCell id="7UuzC6sXoYc_6NqhGD3_-69" value="" style="html=1;labelBackgroundColor=#ffffff;startArrow=none;startFill=0;startSize=6;endArrow=classic;endFill=1;endSize=6;jettySize=auto;orthogonalLoop=1;strokeWidth=1;dashed=1;fontSize=14;rounded=0;entryX=0;entryY=0.5;entryDx=0;entryDy=0;exitX=1;exitY=0.5;exitDx=0;exitDy=0;" parent="1" source="7UuzC6sXoYc_6NqhGD3_-32" target="7UuzC6sXoYc_6NqhGD3_-33" edge="1">
          <mxGeometry width="60" height="60" relative="1" as="geometry">
            <mxPoint x="450" y="790" as="sourcePoint" />
            <mxPoint x="510" y="730" as="targetPoint" />
          </mxGeometry>
        </mxCell>
        <mxCell id="7UuzC6sXoYc_6NqhGD3_-70" value="" style="html=1;labelBackgroundColor=#ffffff;startArrow=none;startFill=0;startSize=6;endArrow=classic;endFill=1;endSize=6;jettySize=auto;orthogonalLoop=1;strokeWidth=1;dashed=1;fontSize=14;rounded=0;entryX=0;entryY=0.5;entryDx=0;entryDy=0;exitX=1;exitY=0.5;exitDx=0;exitDy=0;" parent="1" source="7UuzC6sXoYc_6NqhGD3_-34" target="7UuzC6sXoYc_6NqhGD3_-35" edge="1">
          <mxGeometry width="60" height="60" relative="1" as="geometry">
            <mxPoint x="550" y="750" as="sourcePoint" />
            <mxPoint x="610" y="750" as="targetPoint" />
            <Array as="points" />
          </mxGeometry>
        </mxCell>
        <mxCell id="7UuzC6sXoYc_6NqhGD3_-74" value="" style="html=1;labelBackgroundColor=#ffffff;startArrow=none;startFill=0;startSize=6;endArrow=classic;endFill=1;endSize=6;jettySize=auto;orthogonalLoop=1;strokeWidth=1;dashed=1;fontSize=14;rounded=0;entryX=0;entryY=0.5;entryDx=0;entryDy=0;exitX=1;exitY=0.5;exitDx=0;exitDy=0;" parent="1" source="7UuzC6sXoYc_6NqhGD3_-36" target="7UuzC6sXoYc_6NqhGD3_-37" edge="1">
          <mxGeometry width="60" height="60" relative="1" as="geometry">
            <mxPoint x="220" y="930" as="sourcePoint" />
            <mxPoint x="280" y="930" as="targetPoint" />
          </mxGeometry>
        </mxCell>
        <mxCell id="7UuzC6sXoYc_6NqhGD3_-75" value="" style="html=1;labelBackgroundColor=#ffffff;startArrow=none;startFill=0;startSize=6;endArrow=classic;endFill=1;endSize=6;jettySize=auto;orthogonalLoop=1;strokeWidth=1;dashed=1;fontSize=14;rounded=0;entryX=0;entryY=0.5;entryDx=0;entryDy=0;exitX=1;exitY=0.5;exitDx=0;exitDy=0;" parent="1" source="7UuzC6sXoYc_6NqhGD3_-38" target="7UuzC6sXoYc_6NqhGD3_-39" edge="1">
          <mxGeometry width="60" height="60" relative="1" as="geometry">
            <mxPoint x="250" y="940" as="sourcePoint" />
            <mxPoint x="310" y="940" as="targetPoint" />
          </mxGeometry>
        </mxCell>
        <mxCell id="7UuzC6sXoYc_6NqhGD3_-76" value="" style="html=1;labelBackgroundColor=#ffffff;startArrow=none;startFill=0;startSize=6;endArrow=classic;endFill=1;endSize=6;jettySize=auto;orthogonalLoop=1;strokeWidth=1;dashed=1;fontSize=14;rounded=0;entryX=0;entryY=0.5;entryDx=0;entryDy=0;exitX=1;exitY=0.5;exitDx=0;exitDy=0;" parent="1" source="7UuzC6sXoYc_6NqhGD3_-39" target="7UuzC6sXoYc_6NqhGD3_-40" edge="1">
          <mxGeometry width="60" height="60" relative="1" as="geometry">
            <mxPoint x="330" y="950" as="sourcePoint" />
            <mxPoint x="390" y="950" as="targetPoint" />
          </mxGeometry>
        </mxCell>
        <mxCell id="7UuzC6sXoYc_6NqhGD3_-77" value="" style="html=1;labelBackgroundColor=#ffffff;startArrow=none;startFill=0;startSize=6;endArrow=classic;endFill=1;endSize=6;jettySize=auto;orthogonalLoop=1;strokeWidth=1;dashed=1;fontSize=14;rounded=0;entryX=0;entryY=0.5;entryDx=0;entryDy=0;exitX=1;exitY=0.5;exitDx=0;exitDy=0;" parent="1" source="7UuzC6sXoYc_6NqhGD3_-41" target="7UuzC6sXoYc_6NqhGD3_-43" edge="1">
          <mxGeometry width="60" height="60" relative="1" as="geometry">
            <mxPoint x="290" y="960" as="sourcePoint" />
            <mxPoint x="350" y="960" as="targetPoint" />
          </mxGeometry>
        </mxCell>
        <mxCell id="7UuzC6sXoYc_6NqhGD3_-78" value="Yes" style="text;html=1;align=center;verticalAlign=middle;whiteSpace=wrap;rounded=0;" parent="1" vertex="1">
          <mxGeometry x="350" y="1190" width="60" height="30" as="geometry" />
        </mxCell>
        <mxCell id="7UuzC6sXoYc_6NqhGD3_-79" value="No" style="text;html=1;align=center;verticalAlign=middle;whiteSpace=wrap;rounded=0;" parent="1" vertex="1">
          <mxGeometry x="440" y="1160" width="60" height="30" as="geometry" />
        </mxCell>
        <mxCell id="7UuzC6sXoYc_6NqhGD3_-80" value="Use Case Diagram" style="text;html=1;align=center;verticalAlign=middle;whiteSpace=wrap;rounded=0;fontSize=16;" parent="1" vertex="1">
          <mxGeometry x="975" y="600" width="250" height="24" as="geometry" />
        </mxCell>
        <mxCell id="7UuzC6sXoYc_6NqhGD3_-81" value="Researcher /&lt;div&gt;Benchmark Runner&lt;/div&gt;" style="shape=umlActor;verticalLabelPosition=bottom;verticalAlign=top;html=1;outlineConnect=0;" parent="1" vertex="1">
          <mxGeometry x="930" y="830" width="30" height="60" as="geometry" />
        </mxCell>
        <mxCell id="7UuzC6sXoYc_6NqhGD3_-82" value="" style="rounded=0;whiteSpace=wrap;html=1;" parent="1" vertex="1">
          <mxGeometry x="1070" y="650" width="350" height="430" as="geometry" />
        </mxCell>
        <mxCell id="7UuzC6sXoYc_6NqhGD3_-83" value="Configure Benchmark" style="ellipse;whiteSpace=wrap;html=1;" parent="1" vertex="1">
          <mxGeometry x="1110" y="660" width="90" height="50" as="geometry" />
        </mxCell>
        <mxCell id="7UuzC6sXoYc_6NqhGD3_-84" value="Run Encryption/Encapsulation (GPU)" style="ellipse;whiteSpace=wrap;html=1;" parent="1" vertex="1">
          <mxGeometry x="1085" y="720" width="140" height="60" as="geometry" />
        </mxCell>
        <mxCell id="7UuzC6sXoYc_6NqhGD3_-85" value="Run Decryption/Decapsulation (GPU + CPU BM)" style="ellipse;whiteSpace=wrap;html=1;" parent="1" vertex="1">
          <mxGeometry x="1085" y="795" width="140" height="70" as="geometry" />
        </mxCell>
        <mxCell id="7UuzC6sXoYc_6NqhGD3_-87" value="&lt;span style=&quot;color: rgba(0, 0, 0, 0); font-family: monospace; font-size: 0px; text-align: start; text-wrap-mode: nowrap;&quot;&gt;%3CmxGraphModel%3E%3Croot%3E%3CmxCell%20id%3D%220%22%2F%3E%3CmxCell%20id%3D%221%22%20parent%3D%220%22%2F%3E%3CmxCell%20id%3D%222%22%20value%3D%22Run%20Decryption%2FDecapsulation%20(GPU%20%2B%20CPU%20BM)%22%20style%3D%22ellipse%3BwhiteSpace%3Dwrap%3Bhtml%3D1%3B%22%20vertex%3D%221%22%20parent%3D%221%22%3E%3CmxGeometry%20x%3D%221170%22%20y%3D%22830%22%20width%3D%22140%22%20height%3D%2270%22%20as%3D%22geometry%22%2F%3E%3C%2FmxCell%3E%3C%2Froot%3E%3C%2FmxGraphModel%3E&lt;/span&gt;Validate Results" style="ellipse;whiteSpace=wrap;html=1;" parent="1" vertex="1">
          <mxGeometry x="1105" y="875" width="100" height="50" as="geometry" />
        </mxCell>
        <mxCell id="7UuzC6sXoYc_6NqhGD3_-88" value="Export Results" style="ellipse;whiteSpace=wrap;html=1;" parent="1" vertex="1">
          <mxGeometry x="1105" y="940" width="100" height="50" as="geometry" />
        </mxCell>
        <mxCell id="7UuzC6sXoYc_6NqhGD3_-89" value="Compare with CPU Reference" style="ellipse;whiteSpace=wrap;html=1;" parent="1" vertex="1">
          <mxGeometry x="1105" y="1000" width="100" height="50" as="geometry" />
        </mxCell>
        <mxCell id="7UuzC6sXoYc_6NqhGD3_-92" value="select num_blocks, trials" style="ellipse;whiteSpace=wrap;html=1;" parent="1" vertex="1">
          <mxGeometry x="1305" y="660" width="90" height="50" as="geometry" />
        </mxCell>
        <mxCell id="7UuzC6sXoYc_6NqhGD3_-93" value="produce c, e, ss_enc" style="ellipse;whiteSpace=wrap;html=1;" parent="1" vertex="1">
          <mxGeometry x="1310" y="730" width="90" height="50" as="geometry" />
        </mxCell>
        <mxCell id="7UuzC6sXoYc_6NqhGD3_-94" value="recover e&#39;, derive ss_dec" style="ellipse;whiteSpace=wrap;html=1;" parent="1" vertex="1">
          <mxGeometry x="1310" y="800" width="90" height="50" as="geometry" />
        </mxCell>
        <mxCell id="7UuzC6sXoYc_6NqhGD3_-95" value="compare ss_enc vs ss_dec" style="ellipse;whiteSpace=wrap;html=1;" parent="1" vertex="1">
          <mxGeometry x="1310" y="870" width="90" height="50" as="geometry" />
        </mxCell>
        <mxCell id="7UuzC6sXoYc_6NqhGD3_-96" value="CSV logs, metrics" style="ellipse;whiteSpace=wrap;html=1;" parent="1" vertex="1">
          <mxGeometry x="1310" y="935" width="90" height="50" as="geometry" />
        </mxCell>
        <mxCell id="7UuzC6sXoYc_6NqhGD3_-97" value="vec parity checks" style="ellipse;whiteSpace=wrap;html=1;" parent="1" vertex="1">
          <mxGeometry x="1310" y="1000" width="90" height="50" as="geometry" />
        </mxCell>
        <mxCell id="7UuzC6sXoYc_6NqhGD3_-98" value="" style="endArrow=classic;html=1;rounded=0;exitX=1;exitY=0.5;exitDx=0;exitDy=0;entryX=0;entryY=0.5;entryDx=0;entryDy=0;" parent="1" source="7UuzC6sXoYc_6NqhGD3_-83" target="7UuzC6sXoYc_6NqhGD3_-92" edge="1">
          <mxGeometry relative="1" as="geometry">
            <mxPoint x="1200" y="700" as="sourcePoint" />
            <mxPoint x="1300" y="700" as="targetPoint" />
          </mxGeometry>
        </mxCell>
        <mxCell id="7UuzC6sXoYc_6NqhGD3_-99" value="&amp;lt;&amp;lt;&amp;lt;includes&amp;gt;&amp;gt;" style="edgeLabel;resizable=0;html=1;;align=center;verticalAlign=middle;" parent="7UuzC6sXoYc_6NqhGD3_-98" connectable="0" vertex="1">
          <mxGeometry relative="1" as="geometry" />
        </mxCell>
        <mxCell id="7UuzC6sXoYc_6NqhGD3_-101" value="" style="endArrow=classic;html=1;rounded=0;exitX=1;exitY=0.5;exitDx=0;exitDy=0;entryX=0;entryY=0.5;entryDx=0;entryDy=0;" parent="1" source="7UuzC6sXoYc_6NqhGD3_-84" target="7UuzC6sXoYc_6NqhGD3_-93" edge="1">
          <mxGeometry relative="1" as="geometry">
            <mxPoint x="1270" y="710" as="sourcePoint" />
            <mxPoint x="1375" y="710" as="targetPoint" />
          </mxGeometry>
        </mxCell>
        <mxCell id="7UuzC6sXoYc_6NqhGD3_-102" value="&amp;lt;&amp;lt;&amp;lt;includes&amp;gt;&amp;gt;" style="edgeLabel;resizable=0;html=1;;align=center;verticalAlign=middle;" parent="7UuzC6sXoYc_6NqhGD3_-101" connectable="0" vertex="1">
          <mxGeometry relative="1" as="geometry" />
        </mxCell>
        <mxCell id="7UuzC6sXoYc_6NqhGD3_-103" value="" style="endArrow=classic;html=1;rounded=0;exitX=1;exitY=0.5;exitDx=0;exitDy=0;entryX=0;entryY=0.5;entryDx=0;entryDy=0;" parent="1" source="7UuzC6sXoYc_6NqhGD3_-85" target="7UuzC6sXoYc_6NqhGD3_-94" edge="1">
          <mxGeometry relative="1" as="geometry">
            <mxPoint x="1300" y="810" as="sourcePoint" />
            <mxPoint x="1405" y="810" as="targetPoint" />
          </mxGeometry>
        </mxCell>
        <mxCell id="7UuzC6sXoYc_6NqhGD3_-104" value="&amp;lt;&amp;lt;&amp;lt;includes&amp;gt;&amp;gt;" style="edgeLabel;resizable=0;html=1;;align=center;verticalAlign=middle;" parent="7UuzC6sXoYc_6NqhGD3_-103" connectable="0" vertex="1">
          <mxGeometry relative="1" as="geometry" />
        </mxCell>
        <mxCell id="7UuzC6sXoYc_6NqhGD3_-105" value="" style="endArrow=classic;html=1;rounded=0;exitX=1;exitY=0.5;exitDx=0;exitDy=0;entryX=0;entryY=0.5;entryDx=0;entryDy=0;" parent="1" source="7UuzC6sXoYc_6NqhGD3_-87" target="7UuzC6sXoYc_6NqhGD3_-95" edge="1">
          <mxGeometry relative="1" as="geometry">
            <mxPoint x="1260" y="880" as="sourcePoint" />
            <mxPoint x="1365" y="880" as="targetPoint" />
          </mxGeometry>
        </mxCell>
        <mxCell id="7UuzC6sXoYc_6NqhGD3_-106" value="&amp;lt;&amp;lt;&amp;lt;includes&amp;gt;&amp;gt;" style="edgeLabel;resizable=0;html=1;;align=center;verticalAlign=middle;" parent="7UuzC6sXoYc_6NqhGD3_-105" connectable="0" vertex="1">
          <mxGeometry relative="1" as="geometry" />
        </mxCell>
        <mxCell id="7UuzC6sXoYc_6NqhGD3_-107" value="" style="endArrow=classic;html=1;rounded=0;exitX=1;exitY=0.5;exitDx=0;exitDy=0;entryX=0;entryY=0.5;entryDx=0;entryDy=0;" parent="1" source="7UuzC6sXoYc_6NqhGD3_-88" target="7UuzC6sXoYc_6NqhGD3_-96" edge="1">
          <mxGeometry relative="1" as="geometry">
            <mxPoint x="1240" y="950" as="sourcePoint" />
            <mxPoint x="1345" y="950" as="targetPoint" />
          </mxGeometry>
        </mxCell>
        <mxCell id="7UuzC6sXoYc_6NqhGD3_-108" value="&amp;lt;&amp;lt;&amp;lt;includes&amp;gt;&amp;gt;" style="edgeLabel;resizable=0;html=1;;align=center;verticalAlign=middle;" parent="7UuzC6sXoYc_6NqhGD3_-107" connectable="0" vertex="1">
          <mxGeometry relative="1" as="geometry" />
        </mxCell>
        <mxCell id="7UuzC6sXoYc_6NqhGD3_-109" value="" style="endArrow=classic;html=1;rounded=0;exitX=1;exitY=0.5;exitDx=0;exitDy=0;entryX=0;entryY=0.5;entryDx=0;entryDy=0;" parent="1" source="7UuzC6sXoYc_6NqhGD3_-89" target="7UuzC6sXoYc_6NqhGD3_-97" edge="1">
          <mxGeometry relative="1" as="geometry">
            <mxPoint x="1250" y="1020" as="sourcePoint" />
            <mxPoint x="1320" y="1020" as="targetPoint" />
          </mxGeometry>
        </mxCell>
        <mxCell id="7UuzC6sXoYc_6NqhGD3_-110" value="&amp;lt;&amp;lt;&amp;lt;includes&amp;gt;&amp;gt;" style="edgeLabel;resizable=0;html=1;;align=center;verticalAlign=middle;" parent="7UuzC6sXoYc_6NqhGD3_-109" connectable="0" vertex="1">
          <mxGeometry relative="1" as="geometry" />
        </mxCell>
        <mxCell id="7UuzC6sXoYc_6NqhGD3_-111" value="" style="endArrow=none;html=1;rounded=0;entryX=0;entryY=0.5;entryDx=0;entryDy=0;" parent="1" target="7UuzC6sXoYc_6NqhGD3_-83" edge="1">
          <mxGeometry width="50" height="50" relative="1" as="geometry">
            <mxPoint x="970" y="850" as="sourcePoint" />
            <mxPoint x="1050" y="830" as="targetPoint" />
          </mxGeometry>
        </mxCell>
        <mxCell id="7UuzC6sXoYc_6NqhGD3_-112" value="" style="endArrow=none;html=1;rounded=0;entryX=0;entryY=0.5;entryDx=0;entryDy=0;" parent="1" target="7UuzC6sXoYc_6NqhGD3_-84" edge="1">
          <mxGeometry width="50" height="50" relative="1" as="geometry">
            <mxPoint x="970" y="850" as="sourcePoint" />
            <mxPoint x="1130" y="810" as="targetPoint" />
          </mxGeometry>
        </mxCell>
        <mxCell id="7UuzC6sXoYc_6NqhGD3_-113" value="" style="endArrow=none;html=1;rounded=0;entryX=0;entryY=0.5;entryDx=0;entryDy=0;" parent="1" target="7UuzC6sXoYc_6NqhGD3_-85" edge="1">
          <mxGeometry width="50" height="50" relative="1" as="geometry">
            <mxPoint x="970" y="850" as="sourcePoint" />
            <mxPoint x="1140" y="900" as="targetPoint" />
          </mxGeometry>
        </mxCell>
        <mxCell id="7UuzC6sXoYc_6NqhGD3_-114" value="" style="endArrow=none;html=1;rounded=0;entryX=0;entryY=0.5;entryDx=0;entryDy=0;" parent="1" target="7UuzC6sXoYc_6NqhGD3_-87" edge="1">
          <mxGeometry width="50" height="50" relative="1" as="geometry">
            <mxPoint x="970" y="850" as="sourcePoint" />
            <mxPoint x="1160" y="870" as="targetPoint" />
          </mxGeometry>
        </mxCell>
        <mxCell id="7UuzC6sXoYc_6NqhGD3_-115" value="" style="endArrow=none;html=1;rounded=0;entryX=0;entryY=0.5;entryDx=0;entryDy=0;" parent="1" target="7UuzC6sXoYc_6NqhGD3_-88" edge="1">
          <mxGeometry width="50" height="50" relative="1" as="geometry">
            <mxPoint x="970" y="850" as="sourcePoint" />
            <mxPoint x="1210" y="930" as="targetPoint" />
          </mxGeometry>
        </mxCell>
        <mxCell id="7UuzC6sXoYc_6NqhGD3_-116" value="" style="endArrow=none;html=1;rounded=0;entryX=0;entryY=0.5;entryDx=0;entryDy=0;" parent="1" target="7UuzC6sXoYc_6NqhGD3_-89" edge="1">
          <mxGeometry width="50" height="50" relative="1" as="geometry">
            <mxPoint x="970" y="850" as="sourcePoint" />
            <mxPoint x="1240" y="970" as="targetPoint" />
          </mxGeometry>
        </mxCell>
        <mxCell id="QBpeKpiuGSUQQHJ-852n-1" value="System Block Diagram" style="text;html=1;align=center;verticalAlign=middle;whiteSpace=wrap;rounded=0;fontSize=16;" parent="1" vertex="1">
          <mxGeometry x="1820" y="-40" width="250" height="24" as="geometry" />
        </mxCell>
        <mxCell id="QBpeKpiuGSUQQHJ-852n-2" value="RNG &amp;amp; Input Prep&lt;div&gt;- randombytes()&lt;/div&gt;&lt;div&gt;- Load pk, sk&lt;/div&gt;" style="rounded=0;whiteSpace=wrap;html=1;align=center;" parent="1" vertex="1">
          <mxGeometry x="1885" width="120" height="60" as="geometry" />
        </mxCell>
        <mxCell id="QBpeKpiuGSUQQHJ-852n-11" value="DEVICE (GPU)" style="swimlane;childLayout=stackLayout;horizontal=1;startSize=20;horizontalStack=0;rounded=1;fontSize=14;fontStyle=0;strokeWidth=2;resizeParent=0;resizeLast=1;shadow=0;dashed=0;align=center;arcSize=4;whiteSpace=wrap;html=1;" parent="1" vertex="1">
          <mxGeometry x="1803.75" y="110" width="282.5" height="350" as="geometry" />
        </mxCell>
        <mxCell id="QBpeKpiuGSUQQHJ-852n-12" value="&lt;div style=&quot;&quot;&gt;&lt;span style=&quot;font-size: 13px;&quot;&gt;Encryption Phase:&lt;/span&gt;&lt;/div&gt;&lt;div style=&quot;&quot;&gt;&lt;span style=&quot;background-color: transparent; font-size: 13px;&quot;&gt;&lt;span style=&quot;white-space: pre;&quot;&gt;&#x9;&lt;/span&gt;load_gf_kernel&lt;/span&gt;&lt;/div&gt;&lt;div style=&quot;&quot;&gt;&lt;span style=&quot;background-color: transparent; font-size: 13px;&quot;&gt;&lt;span style=&quot;white-space: pre;&quot;&gt;&#x9;&lt;/span&gt;&lt;/span&gt;&lt;span style=&quot;background-color: transparent; font-size: 13px;&quot;&gt;filter_valid_indices&lt;/span&gt;&lt;/div&gt;&lt;div style=&quot;&quot;&gt;&lt;span style=&quot;background-color: transparent;&quot;&gt;&lt;span style=&quot;font-size: 13px;&quot;&gt;&lt;span style=&quot;white-space: pre;&quot;&gt;&#x9;&lt;/span&gt;bitonic_sort_kernel&lt;/span&gt;&lt;/span&gt;&lt;/div&gt;&lt;div style=&quot;&quot;&gt;&lt;span style=&quot;background-color: transparent;&quot;&gt;&lt;span style=&quot;font-size: 13px;&quot;&gt;&lt;span style=&quot;white-space: pre;&quot;&gt;&#x9;&lt;/span&gt;check_duplicates&lt;br&gt;&lt;/span&gt;&lt;/span&gt;&lt;/div&gt;&lt;div style=&quot;&quot;&gt;&lt;span style=&quot;background-color: transparent;&quot;&gt;&lt;span style=&quot;font-size: 13px;&quot;&gt;&lt;span style=&quot;white-space: pre;&quot;&gt;&#x9;&lt;/span&gt;compute_val /&amp;nbsp;&lt;/span&gt;&lt;/span&gt;&lt;span style=&quot;font-size: 13px; background-color: transparent; color: light-dark(rgb(0, 0, 0), rgb(255, 255, 255));&quot;&gt;set_bits (build e)&lt;/span&gt;&lt;/div&gt;&lt;div style=&quot;&quot;&gt;&lt;span style=&quot;background-color: transparent;&quot;&gt;&lt;span style=&quot;font-size: 13px;&quot;&gt;&lt;span style=&quot;white-space: pre;&quot;&gt;&#x9;&lt;/span&gt;syndrome_kernel_vecstyle (compute c)&lt;br&gt;&lt;/span&gt;&lt;/span&gt;&lt;/div&gt;&lt;div style=&quot;&quot;&gt;&lt;span style=&quot;background-color: transparent;&quot;&gt;&lt;span style=&quot;font-size: 13px;&quot;&gt;&lt;br&gt;&lt;/span&gt;&lt;/span&gt;&lt;/div&gt;&lt;div style=&quot;&quot;&gt;&lt;span style=&quot;background-color: transparent;&quot;&gt;&lt;span style=&quot;font-size: 13px;&quot;&gt;Decryption Module:&lt;/span&gt;&lt;/span&gt;&lt;/div&gt;&lt;div style=&quot;&quot;&gt;&lt;span style=&quot;background-color: transparent;&quot;&gt;&lt;span style=&quot;font-size: 13px;&quot;&gt;&lt;span style=&quot;white-space: pre;&quot;&gt;&#x9;&lt;/span&gt;k_preprocess&lt;br&gt;&lt;/span&gt;&lt;/span&gt;&lt;/div&gt;&lt;div style=&quot;&quot;&gt;&lt;span style=&quot;background-color: transparent;&quot;&gt;&lt;span style=&quot;font-size: 13px;&quot;&gt;&lt;span style=&quot;white-space: pre;&quot;&gt;&#x9;&lt;/span&gt;k_benes&amp;nbsp;&lt;/span&gt;&lt;/span&gt;&lt;span style=&quot;background-color: transparent; font-size: 13px;&quot;&gt;(rev=1)&lt;/span&gt;&lt;span style=&quot;background-color: transparent;&quot;&gt;&lt;span style=&quot;font-size: 13px;&quot;&gt;&lt;br&gt;&lt;/span&gt;&lt;/span&gt;&lt;/div&gt;&lt;div style=&quot;&quot;&gt;&lt;span style=&quot;background-color: transparent;&quot;&gt;&lt;span style=&quot;font-size: 13px;&quot;&gt;&lt;span style=&quot;white-space: pre;&quot;&gt;&#x9;&lt;/span&gt;k_fft, k_sq_rows, k_build_inv&lt;br&gt;&lt;/span&gt;&lt;/span&gt;&lt;/div&gt;&lt;div style=&quot;&quot;&gt;&lt;span style=&quot;background-color: transparent;&quot;&gt;&lt;span style=&quot;font-size: 13px;&quot;&gt;&lt;span style=&quot;white-space: pre;&quot;&gt;&#x9;&lt;/span&gt;k_and_scale,&amp;nbsp;&lt;/span&gt;&lt;/span&gt;&lt;span style=&quot;font-size: 13px; background-color: transparent; color: light-dark(rgb(0, 0, 0), rgb(255, 255, 255));&quot;&gt;k_fft_tr (produce s_priv)&lt;/span&gt;&lt;/div&gt;&lt;div style=&quot;&quot;&gt;&lt;span style=&quot;font-size: 13px; background-color: transparent; color: light-dark(rgb(0, 0, 0), rgb(255, 255, 255));&quot;&gt;&lt;br&gt;&lt;/span&gt;&lt;/div&gt;&lt;div style=&quot;&quot;&gt;&lt;span style=&quot;font-size: 13px; background-color: transparent; color: light-dark(rgb(0, 0, 0), rgb(255, 255, 255));&quot;&gt;Error Recovery &amp;amp; Validation:&lt;/span&gt;&lt;/div&gt;&lt;div style=&quot;&quot;&gt;&lt;span style=&quot;font-size: 13px; background-color: transparent; color: light-dark(rgb(0, 0, 0), rgb(255, 255, 255));&quot;&gt;&lt;span style=&quot;white-space: pre;&quot;&gt;&#x9;&lt;/span&gt;&lt;/span&gt;&lt;span style=&quot;background-color: transparent; font-size: 13px;&quot;&gt;(CPU bm() runs here)&lt;/span&gt;&lt;/div&gt;&lt;div style=&quot;&quot;&gt;&lt;span style=&quot;background-color: transparent;&quot;&gt;&lt;span style=&quot;font-size: 13px;&quot;&gt;&lt;span style=&quot;white-space: pre;&quot;&gt;&#x9;&lt;/span&gt;k_fft(d_eval) → k_form_error&lt;/span&gt;&lt;/span&gt;&lt;/div&gt;&lt;div style=&quot;&quot;&gt;&lt;span style=&quot;background-color: transparent;&quot;&gt;&lt;span style=&quot;font-size: 13px;&quot;&gt;&lt;span style=&quot;white-space: pre;&quot;&gt;&#x9;&lt;/span&gt;k_and_scale → k_fft_tr → k_synd_cmp&lt;/span&gt;&lt;/span&gt;&lt;/div&gt;&lt;div style=&quot;&quot;&gt;&lt;span style=&quot;background-color: transparent;&quot;&gt;&lt;span style=&quot;font-size: 13px;&quot;&gt;&lt;span style=&quot;white-space: pre;&quot;&gt;&#x9;&lt;/span&gt;k_benes (rev=0) → k_postprocess&lt;/span&gt;&lt;/span&gt;&lt;/div&gt;&lt;div style=&quot;&quot;&gt;&lt;span style=&quot;background-color: transparent;&quot;&gt;&lt;span style=&quot;font-size: 13px;&quot;&gt;&lt;span style=&quot;white-space: pre;&quot;&gt;&#x9;&lt;/span&gt;k_&lt;/span&gt;&lt;/span&gt;&lt;span style=&quot;background-color: transparent; font-size: 13px;&quot;&gt;weight_check (verify wt == t)&lt;/span&gt;&lt;/div&gt;&lt;div style=&quot;&quot;&gt;&lt;span style=&quot;background-color: transparent;&quot;&gt;&lt;span style=&quot;font-size: 13px;&quot;&gt;&lt;span style=&quot;white-space: pre;&quot;&gt;&#x9;&lt;/span&gt;&lt;br&gt;&lt;/span&gt;&lt;/span&gt;&lt;/div&gt;&lt;div style=&quot;&quot;&gt;&lt;span style=&quot;background-color: transparent;&quot;&gt;&lt;span style=&quot;font-size: 13px;&quot;&gt;&lt;span style=&quot;white-space: pre;&quot;&gt;&#x9;&lt;/span&gt;&lt;br&gt;&lt;/span&gt;&lt;/span&gt;&lt;/div&gt;&lt;div style=&quot;&quot;&gt;&lt;span style=&quot;font-size: 13px;&quot;&gt;&lt;br&gt;&lt;/span&gt;&lt;/div&gt;" style="align=left;strokeColor=none;fillColor=none;spacingLeft=4;spacingRight=4;fontSize=12;verticalAlign=top;resizable=0;rotatable=0;part=1;html=1;whiteSpace=wrap;" parent="QBpeKpiuGSUQQHJ-852n-11" vertex="1">
          <mxGeometry y="20" width="282.5" height="270" as="geometry" />
        </mxCell>
        <mxCell id="QBpeKpiuGSUQQHJ-852n-13" value="&lt;div style=&quot;text-align: justify;&quot;&gt;&lt;br&gt;&lt;/div&gt;" style="align=center;strokeColor=none;fillColor=none;spacingLeft=4;spacingRight=4;fontSize=12;verticalAlign=top;resizable=0;rotatable=0;part=1;html=1;whiteSpace=wrap;" parent="QBpeKpiuGSUQQHJ-852n-11" vertex="1">
          <mxGeometry y="290" width="282.5" height="60" as="geometry" />
        </mxCell>
        <mxCell id="QBpeKpiuGSUQQHJ-852n-14" value="" style="endArrow=classic;html=1;rounded=0;entryX=0.5;entryY=0;entryDx=0;entryDy=0;exitX=0.5;exitY=1;exitDx=0;exitDy=0;" parent="1" source="QBpeKpiuGSUQQHJ-852n-2" target="QBpeKpiuGSUQQHJ-852n-11" edge="1">
          <mxGeometry relative="1" as="geometry">
            <mxPoint x="1980" y="80" as="sourcePoint" />
            <mxPoint x="1354" y="111" as="targetPoint" />
          </mxGeometry>
        </mxCell>
        <mxCell id="QBpeKpiuGSUQQHJ-852n-15" value="(H2D transfer: pk, sk, random bytes)" style="edgeLabel;resizable=0;html=1;;align=center;verticalAlign=middle;fontSize=12;" parent="QBpeKpiuGSUQQHJ-852n-14" connectable="0" vertex="1">
          <mxGeometry relative="1" as="geometry" />
        </mxCell>
        <mxCell id="QBpeKpiuGSUQQHJ-852n-16" value="CPU Finalization &amp;amp; KDF&lt;div&gt;- Build preimage (1||e||c or 0||s||c)&lt;/div&gt;&lt;div&gt;- crypto_hash_32b → ss_enc / ss_dec&lt;/div&gt;&lt;div&gt;- Compare shared secrets&lt;/div&gt;&lt;div&gt;- Log result &amp;amp; throughput (CSV)&lt;/div&gt;" style="rounded=0;whiteSpace=wrap;html=1;align=left;" parent="1" vertex="1">
          <mxGeometry x="1837.5" y="510" width="215" height="120" as="geometry" />
        </mxCell>
        <mxCell id="QBpeKpiuGSUQQHJ-852n-17" value="" style="endArrow=classic;html=1;rounded=0;entryX=0.5;entryY=0;entryDx=0;entryDy=0;exitX=0.5;exitY=1;exitDx=0;exitDy=0;" parent="1" source="QBpeKpiuGSUQQHJ-852n-13" target="QBpeKpiuGSUQQHJ-852n-16" edge="1">
          <mxGeometry relative="1" as="geometry">
            <mxPoint x="2020" y="80" as="sourcePoint" />
            <mxPoint x="2020" y="130" as="targetPoint" />
          </mxGeometry>
        </mxCell>
        <mxCell id="QBpeKpiuGSUQQHJ-852n-18" value="(D2H transfer: ciphertext, e, flags)" style="edgeLabel;resizable=0;html=1;;align=center;verticalAlign=middle;fontSize=12;" parent="QBpeKpiuGSUQQHJ-852n-17" connectable="0" vertex="1">
          <mxGeometry relative="1" as="geometry" />
        </mxCell>
        <mxCell id="liu_FBst9fBObmJy1leX-1" value="Flowchart" style="text;html=1;align=center;verticalAlign=middle;whiteSpace=wrap;rounded=0;fontSize=16;" vertex="1" parent="1">
          <mxGeometry x="2035" y="703" width="250" height="24" as="geometry" />
        </mxCell>
        <mxCell id="liu_FBst9fBObmJy1leX-22" style="edgeStyle=orthogonalEdgeStyle;rounded=0;orthogonalLoop=1;jettySize=auto;html=1;exitX=0.5;exitY=1;exitDx=0;exitDy=0;entryX=0.5;entryY=0;entryDx=0;entryDy=0;" edge="1" parent="1" source="liu_FBst9fBObmJy1leX-2" target="liu_FBst9fBObmJy1leX-4">
          <mxGeometry relative="1" as="geometry" />
        </mxCell>
        <mxCell id="liu_FBst9fBObmJy1leX-2" value="Start" style="ellipse;whiteSpace=wrap;html=1;" vertex="1" parent="1">
          <mxGeometry x="1930" y="740" width="50" height="30" as="geometry" />
        </mxCell>
        <mxCell id="liu_FBst9fBObmJy1leX-23" style="edgeStyle=orthogonalEdgeStyle;rounded=0;orthogonalLoop=1;jettySize=auto;html=1;exitX=1;exitY=0.5;exitDx=0;exitDy=0;entryX=0;entryY=0.5;entryDx=0;entryDy=0;" edge="1" parent="1" source="liu_FBst9fBObmJy1leX-4" target="liu_FBst9fBObmJy1leX-5">
          <mxGeometry relative="1" as="geometry" />
        </mxCell>
        <mxCell id="liu_FBst9fBObmJy1leX-4" value="k_preprocess" style="rounded=0;whiteSpace=wrap;html=1;" vertex="1" parent="1">
          <mxGeometry x="1905" y="790" width="100" height="20" as="geometry" />
        </mxCell>
        <mxCell id="liu_FBst9fBObmJy1leX-24" style="edgeStyle=orthogonalEdgeStyle;rounded=0;orthogonalLoop=1;jettySize=auto;html=1;exitX=1;exitY=0.5;exitDx=0;exitDy=0;entryX=0;entryY=0.5;entryDx=0;entryDy=0;" edge="1" parent="1" source="liu_FBst9fBObmJy1leX-5" target="liu_FBst9fBObmJy1leX-6">
          <mxGeometry relative="1" as="geometry" />
        </mxCell>
        <mxCell id="liu_FBst9fBObmJy1leX-5" value="k_benes" style="rounded=0;whiteSpace=wrap;html=1;" vertex="1" parent="1">
          <mxGeometry x="2040" y="790" width="60" height="20" as="geometry" />
        </mxCell>
        <mxCell id="liu_FBst9fBObmJy1leX-26" style="edgeStyle=orthogonalEdgeStyle;rounded=0;orthogonalLoop=1;jettySize=auto;html=1;exitX=1;exitY=0.5;exitDx=0;exitDy=0;" edge="1" parent="1" source="liu_FBst9fBObmJy1leX-6" target="liu_FBst9fBObmJy1leX-8">
          <mxGeometry relative="1" as="geometry" />
        </mxCell>
        <mxCell id="liu_FBst9fBObmJy1leX-6" value="k_fft" style="rounded=0;whiteSpace=wrap;html=1;" vertex="1" parent="1">
          <mxGeometry x="2140" y="790" width="40" height="20" as="geometry" />
        </mxCell>
        <mxCell id="liu_FBst9fBObmJy1leX-27" style="edgeStyle=orthogonalEdgeStyle;rounded=0;orthogonalLoop=1;jettySize=auto;html=1;exitX=1;exitY=0.5;exitDx=0;exitDy=0;entryX=0;entryY=0.5;entryDx=0;entryDy=0;" edge="1" parent="1" source="liu_FBst9fBObmJy1leX-8" target="liu_FBst9fBObmJy1leX-9">
          <mxGeometry relative="1" as="geometry" />
        </mxCell>
        <mxCell id="liu_FBst9fBObmJy1leX-8" value="k_sq_rows" style="rounded=0;whiteSpace=wrap;html=1;" vertex="1" parent="1">
          <mxGeometry x="2220" y="790" width="70" height="20" as="geometry" />
        </mxCell>
        <mxCell id="liu_FBst9fBObmJy1leX-28" style="edgeStyle=orthogonalEdgeStyle;rounded=0;orthogonalLoop=1;jettySize=auto;html=1;exitX=0.5;exitY=1;exitDx=0;exitDy=0;entryX=0.5;entryY=0;entryDx=0;entryDy=0;" edge="1" parent="1" source="liu_FBst9fBObmJy1leX-9" target="liu_FBst9fBObmJy1leX-10">
          <mxGeometry relative="1" as="geometry" />
        </mxCell>
        <mxCell id="liu_FBst9fBObmJy1leX-9" value="k_build_inv" style="rounded=0;whiteSpace=wrap;html=1;" vertex="1" parent="1">
          <mxGeometry x="2330" y="790" width="70" height="20" as="geometry" />
        </mxCell>
        <mxCell id="liu_FBst9fBObmJy1leX-29" style="edgeStyle=orthogonalEdgeStyle;rounded=0;orthogonalLoop=1;jettySize=auto;html=1;exitX=0;exitY=0.5;exitDx=0;exitDy=0;entryX=1;entryY=0.5;entryDx=0;entryDy=0;" edge="1" parent="1" source="liu_FBst9fBObmJy1leX-10" target="liu_FBst9fBObmJy1leX-11">
          <mxGeometry relative="1" as="geometry" />
        </mxCell>
        <mxCell id="liu_FBst9fBObmJy1leX-10" value="k_and_scale" style="rounded=0;whiteSpace=wrap;html=1;" vertex="1" parent="1">
          <mxGeometry x="2330" y="845" width="70" height="20" as="geometry" />
        </mxCell>
        <mxCell id="liu_FBst9fBObmJy1leX-30" style="edgeStyle=orthogonalEdgeStyle;rounded=0;orthogonalLoop=1;jettySize=auto;html=1;exitX=0;exitY=0.5;exitDx=0;exitDy=0;entryX=1;entryY=0.5;entryDx=0;entryDy=0;" edge="1" parent="1" source="liu_FBst9fBObmJy1leX-11" target="liu_FBst9fBObmJy1leX-12">
          <mxGeometry relative="1" as="geometry" />
        </mxCell>
        <mxCell id="liu_FBst9fBObmJy1leX-11" value="k_fft_tr" style="rounded=0;whiteSpace=wrap;html=1;" vertex="1" parent="1">
          <mxGeometry x="2220" y="845" width="70" height="20" as="geometry" />
        </mxCell>
        <mxCell id="liu_FBst9fBObmJy1leX-32" style="edgeStyle=orthogonalEdgeStyle;rounded=0;orthogonalLoop=1;jettySize=auto;html=1;exitX=0;exitY=0.5;exitDx=0;exitDy=0;entryX=1;entryY=0.5;entryDx=0;entryDy=0;" edge="1" parent="1" source="liu_FBst9fBObmJy1leX-12" target="liu_FBst9fBObmJy1leX-13">
          <mxGeometry relative="1" as="geometry" />
        </mxCell>
        <mxCell id="liu_FBst9fBObmJy1leX-12" value="bm (host)" style="rounded=0;whiteSpace=wrap;html=1;" vertex="1" parent="1">
          <mxGeometry x="2125" y="845" width="70" height="20" as="geometry" />
        </mxCell>
        <mxCell id="liu_FBst9fBObmJy1leX-33" style="edgeStyle=orthogonalEdgeStyle;rounded=0;orthogonalLoop=1;jettySize=auto;html=1;exitX=0;exitY=0.5;exitDx=0;exitDy=0;entryX=1;entryY=0.5;entryDx=0;entryDy=0;" edge="1" parent="1" source="liu_FBst9fBObmJy1leX-13" target="liu_FBst9fBObmJy1leX-14">
          <mxGeometry relative="1" as="geometry" />
        </mxCell>
        <mxCell id="liu_FBst9fBObmJy1leX-13" value="k_fft" style="rounded=0;whiteSpace=wrap;html=1;" vertex="1" parent="1">
          <mxGeometry x="2030" y="845" width="60" height="20" as="geometry" />
        </mxCell>
        <mxCell id="liu_FBst9fBObmJy1leX-34" style="edgeStyle=orthogonalEdgeStyle;rounded=0;orthogonalLoop=1;jettySize=auto;html=1;exitX=0.5;exitY=1;exitDx=0;exitDy=0;entryX=0.5;entryY=0;entryDx=0;entryDy=0;" edge="1" parent="1" source="liu_FBst9fBObmJy1leX-14" target="liu_FBst9fBObmJy1leX-15">
          <mxGeometry relative="1" as="geometry" />
        </mxCell>
        <mxCell id="liu_FBst9fBObmJy1leX-14" value="k_form_error" style="rounded=0;whiteSpace=wrap;html=1;" vertex="1" parent="1">
          <mxGeometry x="1912.5" y="845" width="85" height="20" as="geometry" />
        </mxCell>
        <mxCell id="liu_FBst9fBObmJy1leX-35" style="edgeStyle=orthogonalEdgeStyle;rounded=0;orthogonalLoop=1;jettySize=auto;html=1;exitX=1;exitY=0.5;exitDx=0;exitDy=0;entryX=0;entryY=0.5;entryDx=0;entryDy=0;" edge="1" parent="1" source="liu_FBst9fBObmJy1leX-15" target="liu_FBst9fBObmJy1leX-16">
          <mxGeometry relative="1" as="geometry" />
        </mxCell>
        <mxCell id="liu_FBst9fBObmJy1leX-15" value="k_and_scale" style="rounded=0;whiteSpace=wrap;html=1;" vertex="1" parent="1">
          <mxGeometry x="1912.5" y="900" width="85" height="20" as="geometry" />
        </mxCell>
        <mxCell id="liu_FBst9fBObmJy1leX-36" style="edgeStyle=orthogonalEdgeStyle;rounded=0;orthogonalLoop=1;jettySize=auto;html=1;exitX=1;exitY=0.5;exitDx=0;exitDy=0;entryX=0;entryY=0.5;entryDx=0;entryDy=0;" edge="1" parent="1" source="liu_FBst9fBObmJy1leX-16" target="liu_FBst9fBObmJy1leX-17">
          <mxGeometry relative="1" as="geometry" />
        </mxCell>
        <mxCell id="liu_FBst9fBObmJy1leX-16" value="k_fft_tr" style="rounded=0;whiteSpace=wrap;html=1;" vertex="1" parent="1">
          <mxGeometry x="2030" y="900" width="62.5" height="20" as="geometry" />
        </mxCell>
        <mxCell id="liu_FBst9fBObmJy1leX-37" style="edgeStyle=orthogonalEdgeStyle;rounded=0;orthogonalLoop=1;jettySize=auto;html=1;exitX=1;exitY=0.5;exitDx=0;exitDy=0;entryX=0;entryY=0.5;entryDx=0;entryDy=0;" edge="1" parent="1" source="liu_FBst9fBObmJy1leX-17" target="liu_FBst9fBObmJy1leX-18">
          <mxGeometry relative="1" as="geometry" />
        </mxCell>
        <mxCell id="liu_FBst9fBObmJy1leX-17" value="k_synd_cmp" style="rounded=0;whiteSpace=wrap;html=1;" vertex="1" parent="1">
          <mxGeometry x="2125" y="900" width="85" height="20" as="geometry" />
        </mxCell>
        <mxCell id="liu_FBst9fBObmJy1leX-38" style="edgeStyle=orthogonalEdgeStyle;rounded=0;orthogonalLoop=1;jettySize=auto;html=1;exitX=1;exitY=0.5;exitDx=0;exitDy=0;entryX=0;entryY=0.5;entryDx=0;entryDy=0;" edge="1" parent="1" source="liu_FBst9fBObmJy1leX-18" target="liu_FBst9fBObmJy1leX-19">
          <mxGeometry relative="1" as="geometry" />
        </mxCell>
        <mxCell id="liu_FBst9fBObmJy1leX-18" value="k_benes" style="rounded=0;whiteSpace=wrap;html=1;" vertex="1" parent="1">
          <mxGeometry x="2230" y="900" width="60" height="20" as="geometry" />
        </mxCell>
        <mxCell id="liu_FBst9fBObmJy1leX-39" style="edgeStyle=orthogonalEdgeStyle;rounded=0;orthogonalLoop=1;jettySize=auto;html=1;exitX=0.5;exitY=1;exitDx=0;exitDy=0;entryX=0.5;entryY=0;entryDx=0;entryDy=0;" edge="1" parent="1" source="liu_FBst9fBObmJy1leX-19" target="liu_FBst9fBObmJy1leX-20">
          <mxGeometry relative="1" as="geometry" />
        </mxCell>
        <mxCell id="liu_FBst9fBObmJy1leX-19" value="k_postprocess" style="rounded=0;whiteSpace=wrap;html=1;" vertex="1" parent="1">
          <mxGeometry x="2315" y="900" width="100" height="20" as="geometry" />
        </mxCell>
        <mxCell id="liu_FBst9fBObmJy1leX-40" style="edgeStyle=orthogonalEdgeStyle;rounded=0;orthogonalLoop=1;jettySize=auto;html=1;exitX=0.5;exitY=1;exitDx=0;exitDy=0;entryX=0.5;entryY=0;entryDx=0;entryDy=0;" edge="1" parent="1" source="liu_FBst9fBObmJy1leX-20" target="liu_FBst9fBObmJy1leX-21">
          <mxGeometry relative="1" as="geometry" />
        </mxCell>
        <mxCell id="liu_FBst9fBObmJy1leX-20" value="k_weight_check" style="rounded=0;whiteSpace=wrap;html=1;" vertex="1" parent="1">
          <mxGeometry x="2315" y="950" width="100" height="20" as="geometry" />
        </mxCell>
        <mxCell id="liu_FBst9fBObmJy1leX-21" value="End" style="ellipse;whiteSpace=wrap;html=1;" vertex="1" parent="1">
          <mxGeometry x="2340" y="990" width="50" height="30" as="geometry" />
        </mxCell>
      </root>
    </mxGraphModel>
  </diagram>
</mxfile>
